<?xml version="1.0" encoding="UTF-8"?>
<svg version="1.1" xmlns="http://www.w3.org/2000/svg" width="1024" height="1024">
<path d="M0 0 C337.92 0 675.84 0 1024 0 C1024 337.92 1024 675.84 1024 1024 C686.08 1024 348.16 1024 0 1024 C0 686.08 0 348.16 0 0 Z " fill="#FDFEFE" transform="translate(0,0)"/>
<path d="M0 0 C337.92 0 675.84 0 1024 0 C1024 337.92 1024 675.84 1024 1024 C686.08 1024 348.16 1024 0 1024 C0 686.08 0 348.16 0 0 Z M109.375 35.125 C108.06054723 35.59946477 106.74544186 36.0721255 105.4296875 36.54296875 C102.27963425 37.67791441 99.13719238 38.83007927 96 40 C96 40.66 96 41.32 96 42 C95.071875 42.185625 94.14375 42.37125 93.1875 42.5625 C87.59136161 44.14001226 82.58097599 47.48764228 78 51 C78 51.66 78 52.32 78 53 C76.93845703 53.34417969 76.93845703 53.34417969 75.85546875 53.6953125 C61.61491127 60.20194205 48.81519841 78.74040614 42.0625 92.375 C41.72476563 93.05328857 41.38703125 93.73157715 41.0390625 94.43041992 C34.63232192 107.23278206 34.63232192 107.23278206 32 121 C31.34 121 30.68 121 30 121 C28.48064327 130.18830916 27.71075904 139.06817741 27.74831772 148.37538719 C27.74541084 149.65133936 27.74250396 150.92729152 27.73950899 152.24190891 C27.73178669 155.75530072 27.73634575 159.26858126 27.74306489 162.78197107 C27.74816884 166.61508663 27.74160642 170.44818601 27.73657823 174.28129923 C27.72937432 180.99011914 27.72956198 187.69890683 27.73467255 194.4077282 C27.74225161 204.38425286 27.73836269 214.36075045 27.73225593 224.33727495 C27.72173336 242.15806954 27.72263374 259.97884978 27.72841376 277.79964573 C27.73344746 293.39629475 27.73475707 308.99293851 27.73236847 324.58958817 C27.7322157 325.62467755 27.73206293 326.65976694 27.73190553 327.72622267 C27.73128284 331.92814796 27.73064604 336.13007324 27.729986 340.33199852 C27.72386947 379.74102559 27.72941243 419.15004352 27.7401798 458.55906917 C27.74966943 493.55761351 27.74882276 528.55614329 27.73925781 563.5546875 C27.72854376 602.88922239 27.72430468 642.22374921 27.73048234 681.55828536 C27.73112376 685.753117 27.73174944 689.94794865 27.73236847 694.1427803 C27.73252662 695.17563024 27.73268478 696.20848018 27.73284773 697.2726286 C27.73512083 712.85658346 27.73246552 728.44053249 27.72740936 744.02448654 C27.7216873 761.74910936 27.72312803 779.47371559 27.73397085 797.19833635 C27.73983634 807.11310411 27.74023701 817.02783595 27.7326785 826.94260276 C27.7281832 833.57143702 27.73100387 840.20024256 27.73968804 846.82907257 C27.74442998 850.60180893 27.74610502 854.3744741 27.73887607 858.14720814 C27.44855891 885.19359196 27.44855891 885.19359196 33.5 911.375 C34.02122437 912.83063354 34.02122437 912.83063354 34.55297852 914.31567383 C44.42574075 940.86436964 63.40393786 966.77332674 89 980 C89.99 980 90.98 980 92 980 C92 980.66 92 981.32 92 982 C94.49882727 983.10688344 96.99899729 984.21055111 99.5 985.3125 C100.54414063 985.7755957 100.54414063 985.7755957 101.609375 986.24804688 C102.30546875 986.55419922 103.0015625 986.86035156 103.71875 987.17578125 C104.66137695 987.59210815 104.66137695 987.59210815 105.62304688 988.0168457 C106.40744141 988.34128662 107.19183594 988.66572754 108 989 C109.13062089 989.47078911 110.26124179 989.94157821 111.42612392 990.42663366 C130.03042525 997.33485781 151.33886128 996.58662477 170.88343819 996.49526613 C174.66507321 996.48218126 178.44666373 996.49285396 182.22830409 996.50024194 C188.82806691 996.50998476 195.42768769 996.50515543 202.02743912 996.49028015 C211.8414007 996.46822239 221.6552674 996.46945103 231.46924728 996.47511442 C247.9882641 996.48398157 264.50722001 996.47423293 281.02622414 996.45348549 C297.37446335 996.43298552 313.72267619 996.42042759 330.07092857 996.41844749 C331.60010368 996.41825274 331.60010368 996.41825274 333.16017121 996.41805406 C337.29889798 996.41755407 341.43762475 996.41711412 345.57635154 996.41675197 C383.23589597 996.41345444 420.89540379 996.39115256 458.55493164 996.35668945 C494.08325337 996.32419244 529.61155661 996.30294998 565.13989258 996.29516602 C566.23540634 996.29492297 567.3309201 996.29467993 568.45963124 996.29442953 C573.97771986 996.29320741 579.49580848 996.2920041 585.0138971 996.29080774 C586.6473415 996.29045333 586.6473415 996.29045333 588.31378478 996.29009177 C590.50971288 996.28961759 592.70564098 996.28914743 594.90156909 996.2886813 C629.87486431 996.28120662 664.84815615 996.26543398 699.82144741 996.24748212 C710.05244123 996.24224071 720.28343501 996.23729661 730.51442933 996.2331202 C752.01800209 996.22423696 773.52156639 996.21257002 795.02513114 996.19155417 C803.91581775 996.18292754 812.80649875 996.17575166 821.69718933 996.17303848 C829.06928012 996.17078161 836.44135852 996.16520481 843.81344296 996.15512848 C847.52280164 996.15015025 851.23214381 996.14669171 854.94150613 996.1475983 C858.94348441 996.1485285 862.9454135 996.14173251 866.94738483 996.13422108 C868.08980856 996.1357047 869.23223228 996.13718832 870.40927491 996.13871691 C881.31629037 996.10568342 892.01995061 995.71480922 902.5625 992.75 C903.37912109 992.52530029 904.19574219 992.30060059 905.03710938 992.0690918 C918.60622061 988.22961347 930.64724682 981.6674587 943 975 C943 974.34 943 973.68 943 973 C944.32 972.67 945.64 972.34 947 972 C947 971.34 947 970.68 947 970 C947.74781738 969.73896484 948.49563477 969.47792969 949.26611328 969.20898438 C952.05026704 967.97777082 953.60023376 966.78611532 955.7421875 964.65625 C956.41258057 963.99197998 957.08297363 963.32770996 957.77368164 962.64331055 C958.4671167 961.93601807 959.16055176 961.22872559 959.875 960.5 C960.59099365 959.77530518 961.3069873 959.05061035 962.04467773 958.30395508 C966.9972692 953.21292481 971.28117614 948.06438931 975 942 C975.61230469 941.08605469 976.22460938 940.17210937 976.85546875 939.23046875 C982.69999437 930.78813346 982.69999437 930.78813346 985 921 C985.66 921 986.32 921 987 921 C989.87199138 914.69834901 991.57236647 908.83820345 992.41015625 901.95703125 C993 899 993 899 994.51361918 896.10209107 C996.83733949 890.74709666 996.40867732 885.149201 996.3719368 879.40951157 C996.37569793 878.13338483 996.37945906 876.8572581 996.38333416 875.54246086 C996.39336186 871.99592744 996.38469056 868.4496479 996.37299994 864.90312865 C996.36359201 861.04638216 996.37159655 857.18966561 996.37739825 853.33291745 C996.38516011 846.57189012 996.38175863 839.81093953 996.37107468 833.04991722 C996.35523105 822.99593577 996.35655173 812.94200789 996.36136696 802.88801773 C996.36896041 785.97319153 996.36243612 769.05839796 996.34775543 752.14357758 C996.33322846 735.38609309 996.32446934 718.62862289 996.32357025 701.8711319 C996.32350916 700.82929032 996.32344806 699.78744875 996.32338512 698.71403621 C996.3231556 694.48498773 996.32296842 690.25593925 996.32283698 686.02689076 C996.32162515 647.47120547 996.30592022 608.91554015 996.28125 570.35986328 C996.25796433 533.96044764 996.24378448 497.56104412 996.24023438 461.16162109 C996.24012286 460.04063137 996.24001134 458.91964165 996.23989645 457.76468254 C996.23944759 453.24529402 996.23900562 448.7259055 996.23856402 444.20651698 C996.23834364 441.95430454 996.23812235 439.70209209 996.23790014 437.44987965 C996.23767878 435.20319744 996.23746001 432.95651522 996.23724384 430.70983301 C996.23372825 394.92918109 996.22226637 359.14853145 996.2094375 323.36788182 C996.20571885 312.89106095 996.202454 302.41424023 996.20018864 291.93741894 C996.1953787 269.90029852 996.18828884 247.86318536 996.17204097 225.82606998 C996.16539281 216.71095812 996.16024378 207.59585214 996.15958023 198.48073769 C996.15902795 190.92340631 996.15517218 183.36608627 996.14680431 175.80875933 C996.14268724 172.00448363 996.14011727 168.20022461 996.14191952 164.39594671 C996.14381718 160.29523164 996.13799379 156.19456324 996.13142776 152.093853 C996.13319724 150.91667896 996.13496671 149.73950493 996.1367898 148.52665895 C996.11792228 141.63087372 995.75433394 134.85507122 995 128 C994.34 128 993.68 128 993 128 C993.08701172 126.2675 993.08701172 126.2675 993.17578125 124.5 C993.17272078 119.86440648 991.94093581 116.24472404 990.1875 112 C989.66015625 110.66666667 989.1328125 109.33333333 988.60546875 108 C988.3429834 107.3503125 988.08049805 106.700625 987.81005859 106.03125 C986.48475536 102.70800621 985.24635092 99.35354482 984 96 C983.34 96 982.68 96 982 96 C981.85884766 94.95779297 981.85884766 94.95779297 981.71484375 93.89453125 C980.85337117 90.40627344 979.38025113 87.78258977 977.5625 84.6875 C976.94503906 83.61886719 976.32757812 82.55023438 975.69140625 81.44921875 C975.13324219 80.64097656 974.57507813 79.83273438 974 79 C973.34 79 972.68 79 972 79 C972 78.34 972 77.68 972 77 C971.34 77 970.68 77 970 77 C969.8453125 76.0409375 969.8453125 76.0409375 969.6875 75.0625 C969.460625 74.381875 969.23375 73.70125 969 73 C968.01 72.67 967.02 72.34 966 72 C965.65641946 70.66927039 965.3246811 69.33546661 965 68 C960.08750234 61.87469715 953.61113038 57.1609476 947.3125 52.5625 C946.48427734 51.93923828 945.65605469 51.31597656 944.80273438 50.67382812 C943.99771484 50.08150391 943.19269531 49.48917969 942.36328125 48.87890625 C941.64438721 48.3485376 940.92549316 47.81816895 940.18481445 47.27172852 C937.77971844 45.87177935 935.73948358 45.39367127 933 45 C933 44.34 933 43.68 933 43 C930.09399739 41.74335022 928.20395416 41 925 41 C925 40.34 925 39.68 925 39 C921.40078556 37.69424692 917.79484425 36.4081046 914.1875 35.125 C913.18267578 34.76019531 912.17785156 34.39539062 911.14257812 34.01953125 C896.72180518 28.91893632 882.39323127 27.84414921 867.18675137 27.87136555 C865.93512041 27.86961251 864.68348945 27.86785947 863.39393029 27.86605331 C859.93477867 27.86135272 856.47565359 27.86281538 853.01650072 27.86533108 C849.24733986 27.86697104 845.47818452 27.86281762 841.70902544 27.85942191 C835.10778501 27.85427755 828.50655191 27.85284903 821.90530968 27.85387802 C812.08859213 27.85540448 802.27188268 27.85123778 792.4551667 27.8460034 C773.90053743 27.83633618 755.34591092 27.83351938 736.79127943 27.83294634 C722.46055404 27.83248664 708.12982973 27.83042749 693.79910469 27.82724571 C689.67267134 27.82634815 685.54623799 27.82545834 681.41980463 27.82457083 C679.88099448 27.82423926 679.88099448 27.82423926 678.31109726 27.82390099 C649.45758869 27.81774735 620.6040805 27.81380037 591.75057125 27.81424427 C590.1190394 27.81426764 590.1190394 27.81426764 588.4545473 27.81429148 C582.9418129 27.81437458 577.4290785 27.81447363 571.9163441 27.81457619 C570.82151486 27.81459613 569.72668561 27.81461608 568.59867972 27.81463663 C566.38466791 27.81467706 564.1706561 27.81471886 561.95664429 27.81476202 C527.51576971 27.81537467 493.07490497 27.80786976 458.6340332 27.79418945 C419.93052345 27.77882228 381.22702017 27.77022362 342.52350718 27.77115268 C338.39487334 27.7712273 334.2662395 27.77127601 330.13760567 27.77130699 C328.61277049 27.77132447 328.61277049 27.77132447 327.05713056 27.77134231 C310.71203035 27.77137306 294.36693871 27.76499252 278.02184105 27.75637473 C261.58830469 27.74788965 245.15478083 27.74691499 228.72124349 27.75348405 C218.96465664 27.75717403 209.2081078 27.75536384 199.45152499 27.74554171 C192.92547315 27.73952824 186.39944876 27.74085233 179.87339816 27.74801221 C176.16095144 27.7518822 172.44857813 27.75270286 168.73613667 27.74455485 C148.08825093 27.70238842 128.91736961 27.82727411 109.375 35.125 Z " fill="#58595B" transform="translate(0,0)"/>
<path d="M0 0 C1.01981291 -0.01509826 1.01981291 -0.01509826 2.06022811 -0.03050154 C4.33232555 -0.05672011 6.60204852 -0.04018131 8.87420654 -0.02360535 C10.50565734 -0.03337587 12.13709464 -0.04568259 13.76850891 -0.06033325 C18.19661442 -0.09195731 22.62390443 -0.08546646 27.05206776 -0.07025361 C30.75217686 -0.06110032 34.45213675 -0.0708075 38.1522367 -0.08059233 C46.88570832 -0.10350584 55.61878523 -0.09591883 64.35223389 -0.06852722 C73.350797 -0.04075293 82.34836383 -0.06004517 91.346843 -0.10340291 C99.0804323 -0.13922873 106.81371517 -0.14771246 114.54737544 -0.13401049 C119.16274317 -0.12597891 123.77755362 -0.12769473 128.39286041 -0.15487099 C132.73699206 -0.17908784 137.079744 -0.16892805 141.42378044 -0.13288307 C143.01319919 -0.12525998 144.60272733 -0.1294143 146.19207191 -0.14655685 C154.51743679 -0.22890617 160.94950264 -0.06869558 167.30646896 5.87647533 C167.90471104 6.5008867 168.50295311 7.12529806 169.11932373 7.76863098 C170.18624004 8.75368262 171.25339969 9.73847079 172.32086182 10.72293091 C173.30751316 11.70099828 174.2890595 12.68423854 175.26580811 13.67219543 C175.811716 14.21620499 176.3576239 14.76021454 176.92007446 15.32070923 C178.68930467 17.08629077 180.45132725 18.85886586 182.21307373 20.63191223 C183.4529829 21.8730158 184.69326449 23.1137474 185.93389893 24.35412598 C188.51542462 26.93720584 191.0935855 29.52358016 193.66912842 32.11262512 C196.97389255 35.43449381 200.28531793 38.74962508 203.59902191 42.06257343 C206.15228318 44.616106 208.70293534 47.17223095 211.25270081 49.72925377 C212.47376007 50.95349682 213.69542737 52.17713373 214.91770935 53.40015602 C216.61700751 55.10161425 218.31297779 56.80631818 220.00799561 58.51203918 C220.76685562 59.27021942 220.76685562 59.27021942 221.54104614 60.04371643 C224.86028079 63.39375545 226.241432 65.09680982 226.25633812 69.79578114 C226.26141266 70.64314486 226.26648721 71.49050859 226.27171552 72.36355001 C226.27221328 73.29981416 226.27271104 74.23607832 226.27322388 75.20071411 C226.27979726 76.68644048 226.27979726 76.68644048 226.28650343 78.20218152 C226.29992654 81.54244843 226.30607814 84.88268895 226.31219482 88.22297668 C226.32009294 90.60921855 226.3283617 92.99545922 226.3369751 95.38169861 C226.36095936 102.5578052 226.37612684 109.73391708 226.38903517 116.91005042 C226.39274638 118.93630195 226.39671966 120.96255279 226.40078783 122.98880363 C226.4260223 135.56707214 226.44807901 148.14534171 226.46051598 160.72362995 C226.46344575 163.6376375 226.4664074 166.55164501 226.46942139 169.46565247 C226.47016744 170.1899293 226.47091349 170.91420613 226.47168215 171.66043075 C226.4843396 183.39697861 226.51756747 195.13337509 226.55922322 206.86985216 C226.60162381 218.91474283 226.62520878 230.95955596 226.63043654 243.00452107 C226.63385268 249.7692847 226.64563148 256.53381172 226.67853928 263.29850197 C226.70852012 269.66049673 226.71496722 276.02207832 226.70315552 282.38412857 C226.70293396 284.72186634 226.71130673 287.05962274 226.72880936 289.397295 C226.75137345 292.58389851 226.74326447 295.76898756 226.72732544 298.95559692 C226.74120753 299.88516891 226.75508961 300.8147409 226.76939237 301.77248174 C226.71715284 305.99824928 226.47252595 308.21498636 224.15820599 311.84268379 C219.97222299 314.49562705 216.75483369 314.46302536 211.88920593 314.39682007 C210.95670613 314.40391446 210.02420633 314.41100884 209.06344897 314.41831821 C205.9370427 314.43592828 202.81187466 314.41777769 199.68548584 314.3997345 C197.44495578 314.40487211 195.20442976 314.41215218 192.96391296 314.42141724 C186.877206 314.43995827 180.79093611 314.42697568 174.70424724 314.40732694 C168.33996095 314.39096366 161.97570286 314.39975001 155.61140442 314.40484619 C144.92410291 314.4093694 134.23699431 314.3935865 123.54974365 314.36555481 C112.55259944 314.33671067 101.55570439 314.32963713 90.55853271 314.345047 C77.30618853 314.36359151 64.05399228 314.36187645 50.80163765 314.34283257 C45.73908984 314.33595115 40.6766346 314.33700571 35.61408806 314.34437752 C29.65585712 314.35202475 23.69798616 314.339965 17.73981667 314.31252861 C15.55003808 314.30562763 13.36022599 314.30556503 11.1704483 314.31274414 C8.18737978 314.32139889 5.2054324 314.30554997 2.22245789 314.28329468 C1.35038364 314.29153544 0.47830939 314.29977621 -0.42019135 314.3082667 C-6.2779052 314.22728233 -6.2779052 314.22728233 -9.38712215 311.8614645 C-11.71210785 308.6035926 -12.00753765 306.80425663 -12.01769066 302.83846664 C-12.0227652 301.78968267 -12.02783974 300.7408987 -12.03306806 299.6603334 C-12.03356582 298.49907636 -12.03406358 297.33781932 -12.03457642 296.14137268 C-12.03895867 294.91474797 -12.04334092 293.68812325 -12.04785597 292.42432809 C-12.05893845 289.00854525 -12.06547395 285.59280833 -12.07003713 282.17701411 C-12.0759866 278.49727241 -12.08759806 274.81754766 -12.09832764 271.13781738 C-12.12286648 262.24570874 -12.13748085 253.35359447 -12.1503877 244.46146238 C-12.15409852 241.95082365 -12.15807184 239.44018548 -12.16214037 236.92954731 C-12.18737547 221.34592425 -12.20943322 205.76230033 -12.22186852 190.17866135 C-12.22479832 186.56786343 -12.22775996 182.95706555 -12.23077393 179.3462677 C-12.23151998 178.44879752 -12.23226603 177.55132734 -12.23303469 176.62666109 C-12.2456915 162.0843306 -12.27891805 147.54212229 -12.32057576 132.99984893 C-12.36297452 118.07681205 -12.38656116 103.15383775 -12.39178908 88.23074079 C-12.39520552 79.84902833 -12.40698794 71.46750682 -12.43989182 63.08585358 C-12.46786527 55.94834445 -12.47890364 48.81106539 -12.46769635 41.67350569 C-12.46250268 38.03113534 -12.46544146 34.38924696 -12.4901619 30.74694633 C-12.51673303 26.79904197 -12.50461792 22.85179785 -12.48867798 18.90382385 C-12.50256007 17.7514897 -12.51644215 16.59915555 -12.53074491 15.41190219 C-12.44442321 6.76323186 -12.44442321 6.76323186 -9.77271843 3.05822086 C-6.23265389 0.25560061 -4.48395295 0.01313941 0 0 Z " fill="#C6F7F6" transform="translate(613.8806762695313,370.2313690185547)"/>
<path d="M0 0 C1.37220315 -0.013336 2.7443876 -0.02873045 4.11654663 -0.04602051 C7.83389056 -0.08582239 11.55063418 -0.09352303 15.26816726 -0.09290457 C18.3791202 -0.09468925 21.4899424 -0.11062835 24.60085279 -0.12602627 C31.94736142 -0.16151851 39.29355803 -0.16932004 46.64013672 -0.16113281 C54.19783256 -0.15330187 61.75400435 -0.1971915 69.31135768 -0.26593387 C75.81613695 -0.32295444 82.32042502 -0.34485806 88.82545072 -0.33969891 C92.70339567 -0.33713163 96.58008409 -0.34805021 100.45778465 -0.3939476 C104.11035658 -0.43586757 107.76039875 -0.4336521 111.41302109 -0.39898682 C113.375465 -0.39094331 115.33793861 -0.42700383 117.30003357 -0.46487427 C126.89182108 -0.30728669 131.90693576 2.93638521 138.55004883 9.71044922 C143.55004883 14.89951089 143.55004883 14.89951089 143.55004883 17.71044922 C144.09894775 17.93410156 144.64784668 18.15775391 145.21337891 18.38818359 C148.2481849 20.10550773 150.51042755 22.40398537 152.93676758 24.86669922 C153.43924515 25.36963501 153.94172272 25.8725708 154.45942688 26.39074707 C155.51650802 27.45084007 156.57116696 28.51335326 157.62353516 29.578125 C159.23718374 31.21007999 160.85874174 32.83384075 162.48168945 34.45654297 C163.50885618 35.48862351 164.53556498 36.52116003 165.56176758 37.55419922 C166.28984871 38.28394958 166.28984871 38.28394958 167.03263855 39.02844238 C171.42940876 43.48789708 171.7009968 46.15942955 171.7106781 52.25106812 C171.71830983 53.4315864 171.71830983 53.4315864 171.72609574 54.63595355 C171.7418607 57.28757399 171.75035583 59.93916711 171.75878906 62.59082031 C171.76832407 64.48608068 171.77821507 66.38133928 171.78843689 68.27659607 C171.81985611 74.51233851 171.8400892 80.74809446 171.85864258 86.98388672 C171.8619399 88.04365361 171.86523722 89.1034205 171.86863446 90.19530153 C171.89941118 100.18341845 171.92612764 110.1715383 171.94305325 120.15968895 C171.96498134 132.95133079 172.00699638 145.74255399 172.07649082 158.53402841 C172.12366012 167.52004189 172.14797717 176.50594212 172.15525013 185.49207556 C172.16021622 190.86353446 172.17538819 196.2345218 172.21499443 201.60584641 C172.25175034 206.65715131 172.2603069 211.70771317 172.2469883 216.75912666 C172.24704243 218.61514439 172.25741201 220.47119413 172.27873993 222.32708931 C172.30627076 224.8575871 172.29698328 227.38534638 172.27830505 229.91586304 C172.29509998 230.65380045 172.31189491 231.39173787 172.32919878 232.15203702 C172.29112911 234.209692 172.29112911 234.209692 171.55004883 237.71044922 C167.18227876 241.50417985 164.11948947 242.19881573 158.40161133 242.10107422 C157.74421967 242.09541443 157.086828 242.08975464 156.40951538 242.08392334 C154.33058691 242.06171197 152.2534472 242.01155342 150.17504883 241.96044922 C148.75710515 241.94036411 147.33913418 241.92211687 145.92114258 241.90576172 C142.46354006 241.86189989 139.00696932 241.79298359 135.55004883 241.71044922 C135.57623291 242.41129639 135.60241699 243.11214355 135.62939453 243.83422852 C135.73358423 247.02190572 135.79844465 250.20922448 135.86254883 253.39794922 C135.90444336 254.50074219 135.94633789 255.60353516 135.98950195 256.73974609 C136.00561523 257.80644531 136.02172852 258.87314453 136.03833008 259.97216797 C136.06451416 260.95145264 136.09069824 261.9307373 136.11767578 262.93969727 C135.30963679 266.88397015 133.74050522 268.31814476 130.55004883 270.71044922 C127.3203125 271.27807617 127.3203125 271.27807617 123.71801758 271.19873047 C122.42573242 271.18261719 121.13344727 271.16650391 119.80200195 271.14990234 C118.44716726 271.10813196 117.09234955 271.06580731 115.73754883 271.02294922 C114.36324016 270.99784991 112.98888767 270.97503958 111.61450195 270.95458984 C108.25856907 270.89571383 104.90486793 270.81351342 101.55004883 270.71044922 C101.56575928 271.7695752 101.56575928 271.7695752 101.58178711 272.85009766 C101.62339673 276.05351188 101.64939086 279.25686918 101.67504883 282.46044922 C101.70018555 284.12720703 101.70018555 284.12720703 101.72583008 285.82763672 C101.73227539 286.89755859 101.7387207 287.96748047 101.74536133 289.06982422 C101.75583496 290.0543457 101.76630859 291.03886719 101.77709961 292.05322266 C101.53739949 294.85848734 101.15755563 296.40857558 99.55004883 298.71044922 C95.93333107 301.14752486 92.57342668 300.96445524 88.30041504 300.97114563 C87.56886373 300.97497118 86.83731242 300.97879672 86.08359289 300.9827382 C83.6315833 300.99305944 81.17980825 300.98907777 78.7277832 300.98510742 C76.97015669 300.98945434 75.21253207 300.99463742 73.45491028 301.00059509 C68.68021614 301.01399736 63.90560109 301.01456248 59.1308918 301.01203179 C55.14708044 301.01096309 51.16328514 301.01584279 47.17947721 301.02063721 C37.78329488 301.03173628 28.38715252 301.03216731 18.9909668 301.02612305 C9.2911026 301.02007951 -0.40861667 301.03240301 -10.10845613 301.05369312 C-18.4321067 301.0712922 -26.75571107 301.07731322 -35.07937956 301.07405537 C-40.05270038 301.07223994 -45.02591779 301.07490472 -49.9992218 301.08876991 C-54.6745031 301.10131641 -59.34955789 301.0994344 -64.02483559 301.08635902 C-65.74214567 301.08398688 -67.45947154 301.08675067 -69.17676353 301.09498215 C-71.51821331 301.10539754 -73.85889567 301.09739161 -76.20031738 301.08467102 C-77.51144249 301.08483876 -78.8225676 301.0850065 -80.17342377 301.08517933 C-83.64597152 300.68803075 -85.04344385 300.19876841 -87.44995117 297.71044922 C-88.34886133 295.01371873 -88.57649107 293.47547275 -88.58137894 290.71083832 C-88.58522008 289.8950841 -88.58906123 289.07932988 -88.59301877 288.23885584 C-88.59215229 287.34304977 -88.59128581 286.4472437 -88.59039307 285.52429199 C-88.59336419 284.57237772 -88.59633531 283.62046344 -88.59939647 282.63970327 C-88.60809845 279.43606291 -88.60959297 276.23245985 -88.61108398 273.02880859 C-88.61571098 270.73769551 -88.62073548 268.44658321 -88.62612915 266.1554718 C-88.6392639 259.92217603 -88.64569985 253.68889103 -88.65013981 247.45558357 C-88.65306795 243.56512938 -88.65717219 239.67467816 -88.66164398 235.78422546 C-88.67375251 225.01655408 -88.68413544 214.24888657 -88.68751907 203.4812088 C-88.68773864 202.79211543 -88.68795821 202.10302206 -88.68818443 201.39304706 C-88.6884027 200.70229486 -88.68862098 200.01154266 -88.68884587 199.29985857 C-88.68928934 197.90010102 -88.6897359 196.50034348 -88.69018555 195.10058594 C-88.69040698 194.40625613 -88.69062841 193.71192633 -88.69085655 192.99655622 C-88.69480748 181.73728796 -88.71227138 170.4780843 -88.73554507 159.21884102 C-88.75923677 147.66434939 -88.77146167 136.10989943 -88.77288699 124.55538225 C-88.77393765 118.06574816 -88.77990105 111.57620523 -88.7977066 105.08659363 C-88.81411801 98.98648982 -88.81637666 92.88654639 -88.8075676 86.78642845 C-88.80679357 84.54300191 -88.81118763 82.29956698 -88.82102585 80.05616188 C-88.83363492 77.00278251 -88.82792903 73.94998079 -88.81744385 70.89660645 C-88.82550025 70.00080038 -88.83355666 69.10499431 -88.84185719 68.1820426 C-88.83197243 66.95841127 -88.83197243 66.95841127 -88.82188797 65.71006012 C-88.82248506 65.0050268 -88.82308215 64.29999349 -88.82369733 63.57359552 C-88.33471624 61.1359964 -87.38644457 60.22170745 -85.44995117 58.71044922 C-84.78995117 58.71044922 -84.12995117 58.71044922 -83.44995117 58.71044922 C-83.44995117 58.05044922 -83.44995117 57.39044922 -83.44995117 56.71044922 C-73.54995117 56.71044922 -63.64995117 56.71044922 -53.44995117 56.71044922 C-53.60784466 49.32069304 -53.60784466 49.32069304 -53.81030273 41.93212891 C-53.82029297 41.00819336 -53.8302832 40.08425781 -53.84057617 39.13232422 C-53.86152344 38.18969727 -53.8824707 37.24707031 -53.90405273 36.27587891 C-53.29243259 32.82055393 -52.31623119 31.71498702 -49.44995117 29.71044922 C-46.24194336 29.25634766 -46.24194336 29.25634766 -42.49682617 29.31982422 C-41.83660461 29.32548401 -41.17638306 29.3311438 -40.49615479 29.3369751 C-38.39666854 29.35928692 -36.29891748 29.40946608 -34.19995117 29.46044922 C-32.77289257 29.48052128 -31.34580709 29.49877083 -29.91870117 29.51513672 C-26.42855824 29.55913229 -22.93942418 29.62812045 -19.44995117 29.71044922 C-19.48137207 29.00960205 -19.51279297 28.30875488 -19.54516602 27.58666992 C-19.67018969 24.3990938 -19.74801749 21.21203336 -19.82495117 18.02294922 C-19.87522461 16.92015625 -19.92549805 15.81736328 -19.97729492 14.68115234 C-19.99663086 13.61445313 -20.0159668 12.54775391 -20.03588867 11.44873047 C-20.06730957 10.4694458 -20.09873047 9.49016113 -20.13110352 8.48120117 C-19.34887093 5.29928088 -18.1491667 3.79136031 -15.58638 1.77313137 C-10.8062191 -0.60457089 -5.22094635 -0.01565538 0 0 Z " fill="#34C9CC" transform="translate(222.449951171875,377.28955078125)"/>
<path d="M0 0 C38.94 0 77.88 0 118 0 C118.33 10.89 118.66 21.78 119 33 C119.495 34.98 119.495 34.98 120 37 C131.08602724 40.69534241 143.32000297 38.63500009 155 39 C155 94.11 155 149.22 155 206 C103.85 206 52.7 206 0 206 C0 138.02 0 70.04 0 0 Z " fill="#FAFCFC" transform="translate(221,395)"/>
<path d="M0 0 C1.01981291 -0.01509826 1.01981291 -0.01509826 2.06022811 -0.03050154 C4.33232555 -0.05672011 6.60204852 -0.04018131 8.87420654 -0.02360535 C10.50565734 -0.03337587 12.13709464 -0.04568259 13.76850891 -0.06033325 C18.19661442 -0.09195731 22.62390443 -0.08546646 27.05206776 -0.07025361 C30.75217686 -0.06110032 34.45213675 -0.0708075 38.1522367 -0.08059233 C46.88570832 -0.10350584 55.61878523 -0.09591883 64.35223389 -0.06852722 C73.350797 -0.04075293 82.34836383 -0.06004517 91.346843 -0.10340291 C99.0804323 -0.13922873 106.81371517 -0.14771246 114.54737544 -0.13401049 C119.16274317 -0.12597891 123.77755362 -0.12769473 128.39286041 -0.15487099 C132.73699206 -0.17908784 137.079744 -0.16892805 141.42378044 -0.13288307 C143.01319919 -0.12525998 144.60272733 -0.1294143 146.19207191 -0.14655685 C154.51743679 -0.22890617 160.94950264 -0.06869558 167.30646896 5.87647533 C167.90471104 6.5008867 168.50295311 7.12529806 169.11932373 7.76863098 C170.18624004 8.75368262 171.25339969 9.73847079 172.32086182 10.72293091 C173.30751316 11.70099828 174.2890595 12.68423854 175.26580811 13.67219543 C175.811716 14.21620499 176.3576239 14.76021454 176.92007446 15.32070923 C178.68930467 17.08629077 180.45132725 18.85886586 182.21307373 20.63191223 C183.4529829 21.8730158 184.69326449 23.1137474 185.93389893 24.35412598 C188.51542462 26.93720584 191.0935855 29.52358016 193.66912842 32.11262512 C196.97389255 35.43449381 200.28531793 38.74962508 203.59902191 42.06257343 C206.15228318 44.616106 208.70293534 47.17223095 211.25270081 49.72925377 C212.47376007 50.95349682 213.69542737 52.17713373 214.91770935 53.40015602 C216.61700751 55.10161425 218.31297779 56.80631818 220.00799561 58.51203918 C220.76685562 59.27021942 220.76685562 59.27021942 221.54104614 60.04371643 C224.86028079 63.39375545 226.241432 65.09680982 226.25633812 69.79578114 C226.26141266 70.64314486 226.26648721 71.49050859 226.27171552 72.36355001 C226.27221328 73.29981416 226.27271104 74.23607832 226.27322388 75.20071411 C226.27979726 76.68644048 226.27979726 76.68644048 226.28650343 78.20218152 C226.29992654 81.54244843 226.30607814 84.88268895 226.31219482 88.22297668 C226.32009294 90.60921855 226.3283617 92.99545922 226.3369751 95.38169861 C226.36095936 102.5578052 226.37612684 109.73391708 226.38903517 116.91005042 C226.39274638 118.93630195 226.39671966 120.96255279 226.40078783 122.98880363 C226.4260223 135.56707214 226.44807901 148.14534171 226.46051598 160.72362995 C226.46344575 163.6376375 226.4664074 166.55164501 226.46942139 169.46565247 C226.47016744 170.1899293 226.47091349 170.91420613 226.47168215 171.66043075 C226.4843396 183.39697861 226.51756747 195.13337509 226.55922322 206.86985216 C226.60162381 218.91474283 226.62520878 230.95955596 226.63043654 243.00452107 C226.63385268 249.7692847 226.64563148 256.53381172 226.67853928 263.29850197 C226.70852012 269.66049673 226.71496722 276.02207832 226.70315552 282.38412857 C226.70293396 284.72186634 226.71130673 287.05962274 226.72880936 289.397295 C226.75137345 292.58389851 226.74326447 295.76898756 226.72732544 298.95559692 C226.74120753 299.88516891 226.75508961 300.8147409 226.76939237 301.77248174 C226.71715284 305.99824928 226.47252595 308.21498636 224.15820599 311.84268379 C219.97222299 314.49562705 216.75483369 314.46302536 211.88920593 314.39682007 C210.95670613 314.40391446 210.02420633 314.41100884 209.06344897 314.41831821 C205.9370427 314.43592828 202.81187466 314.41777769 199.68548584 314.3997345 C197.44495578 314.40487211 195.20442976 314.41215218 192.96391296 314.42141724 C186.877206 314.43995827 180.79093611 314.42697568 174.70424724 314.40732694 C168.33996095 314.39096366 161.97570286 314.39975001 155.61140442 314.40484619 C144.92410291 314.4093694 134.23699431 314.3935865 123.54974365 314.36555481 C112.55259944 314.33671067 101.55570439 314.32963713 90.55853271 314.345047 C77.30618853 314.36359151 64.05399228 314.36187645 50.80163765 314.34283257 C45.73908984 314.33595115 40.6766346 314.33700571 35.61408806 314.34437752 C29.65585712 314.35202475 23.69798616 314.339965 17.73981667 314.31252861 C15.55003808 314.30562763 13.36022599 314.30556503 11.1704483 314.31274414 C8.18737978 314.32139889 5.2054324 314.30554997 2.22245789 314.28329468 C1.35038364 314.29153544 0.47830939 314.29977621 -0.42019135 314.3082667 C-6.2779052 314.22728233 -6.2779052 314.22728233 -9.38712215 311.8614645 C-11.71210785 308.6035926 -12.00753765 306.80425663 -12.01769066 302.83846664 C-12.0227652 301.78968267 -12.02783974 300.7408987 -12.03306806 299.6603334 C-12.03356582 298.49907636 -12.03406358 297.33781932 -12.03457642 296.14137268 C-12.03895867 294.91474797 -12.04334092 293.68812325 -12.04785597 292.42432809 C-12.05893845 289.00854525 -12.06547395 285.59280833 -12.07003713 282.17701411 C-12.0759866 278.49727241 -12.08759806 274.81754766 -12.09832764 271.13781738 C-12.12286648 262.24570874 -12.13748085 253.35359447 -12.1503877 244.46146238 C-12.15409852 241.95082365 -12.15807184 239.44018548 -12.16214037 236.92954731 C-12.18737547 221.34592425 -12.20943322 205.76230033 -12.22186852 190.17866135 C-12.22479832 186.56786343 -12.22775996 182.95706555 -12.23077393 179.3462677 C-12.23151998 178.44879752 -12.23226603 177.55132734 -12.23303469 176.62666109 C-12.2456915 162.0843306 -12.27891805 147.54212229 -12.32057576 132.99984893 C-12.36297452 118.07681205 -12.38656116 103.15383775 -12.39178908 88.23074079 C-12.39520552 79.84902833 -12.40698794 71.46750682 -12.43989182 63.08585358 C-12.46786527 55.94834445 -12.47890364 48.81106539 -12.46769635 41.67350569 C-12.46250268 38.03113534 -12.46544146 34.38924696 -12.4901619 30.74694633 C-12.51673303 26.79904197 -12.50461792 22.85179785 -12.48867798 18.90382385 C-12.50256007 17.7514897 -12.51644215 16.59915555 -12.53074491 15.41190219 C-12.44442321 6.76323186 -12.44442321 6.76323186 -9.77271843 3.05822086 C-6.23265389 0.25560061 -4.48395295 0.01313941 0 0 Z M5.11932373 17.76863098 C5.11932373 110.16863098 5.11932373 202.56863098 5.11932373 297.76863098 C72.76932373 297.76863098 140.41932373 297.76863098 210.11932373 297.76863098 C210.11932373 225.49863098 210.11932373 153.22863098 210.11932373 78.76863098 C191.96932373 78.43863098 173.81932373 78.10863098 155.11932373 77.76863098 C140.92816843 63.57747568 150.4776474 37.83475622 150.11932373 17.76863098 C102.26932373 17.76863098 54.41932373 17.76863098 5.11932373 17.76863098 Z " fill="#2DCECE" transform="translate(613.8806762695313,370.2313690185547)"/>
<path d="M0 0 C1.75987244 -0.02157166 1.75987244 -0.02157166 3.55529785 -0.0435791 C4.84927994 -0.05412323 6.14326202 -0.06466736 7.47645569 -0.07553101 C8.84805112 -0.0899781 10.21964331 -0.10473572 11.5912323 -0.11978149 C24.1361031 -0.2502738 36.68187029 -0.31597956 49.22728634 -0.36762428 C58.49495015 -0.40647382 67.76139269 -0.47470737 77.02852052 -0.58217204 C83.55010244 -0.65523183 90.07135224 -0.69349212 96.59332663 -0.70665014 C100.48489793 -0.71548564 104.37496055 -0.7394869 108.26608086 -0.80131912 C111.93481746 -0.85895071 115.60128279 -0.873134 119.27040482 -0.85544586 C121.24257413 -0.85673044 123.21456149 -0.90249516 125.18615723 -0.95007324 C134.81193015 -0.83911239 139.82063324 2.37603722 146.48060608 9.18081665 C151.48060608 14.37129659 151.48060608 14.37129659 151.48060608 17.18081665 C152.029505 17.40446899 152.57840393 17.62812134 153.14393616 17.85855103 C156.17874215 19.57587516 158.4409848 21.8743528 160.86732483 24.33706665 C161.3698024 24.84000244 161.87227997 25.34293823 162.38998413 25.8611145 C163.44706527 26.9212075 164.50172421 27.98372069 165.55409241 29.04849243 C167.16774099 30.68044742 168.78929899 32.30420818 170.4122467 33.9269104 C171.43941343 34.95899094 172.46612224 35.99152746 173.49232483 37.02456665 C174.22040596 37.75431702 174.22040596 37.75431702 174.9631958 38.49880981 C179.35996601 42.95826451 179.63155405 45.62979698 179.64123535 51.72143555 C179.64632317 52.50844774 179.65141099 53.29545993 179.65665299 54.10632098 C179.67241795 56.75794142 179.68091309 59.40953454 179.68934631 62.06118774 C179.69888132 63.95644811 179.70877232 65.85170671 179.71899414 67.7469635 C179.75041336 73.98270595 179.77064645 80.21846189 179.78919983 86.45425415 C179.79249715 87.51402104 179.79579447 88.57378793 179.79919171 89.66566896 C179.82996843 99.65378588 179.85668489 109.64190573 179.8736105 119.63005638 C179.89553859 132.42169822 179.93755363 145.21292142 180.00704807 158.00439584 C180.05421737 166.99040932 180.07853442 175.97630956 180.08580738 184.96244299 C180.09077347 190.33390189 180.10594545 195.70488924 180.14555168 201.07621384 C180.18230759 206.12751874 180.19086416 211.1780806 180.17754555 216.22949409 C180.17759968 218.08551182 180.18796926 219.94156156 180.20929718 221.79745674 C180.23682801 224.32795453 180.22754053 226.85571381 180.2088623 229.38623047 C180.22565723 230.12416788 180.24245216 230.8621053 180.25975603 231.62240446 C180.22168636 233.68005943 180.22168636 233.68005943 179.48060608 237.18081665 C175.25643697 241.20004523 171.73211669 241.68318539 166.03515625 241.69548035 C165.30668521 241.70242588 164.57821417 241.7093714 163.82766825 241.7165274 C161.3977818 241.73475754 158.96887611 241.72454494 156.53895569 241.71426392 C154.79250358 241.72132433 153.04605758 241.73006986 151.29962158 241.7403717 C146.56415457 241.76285874 141.82902188 241.75992805 137.09352183 241.75105023 C133.13951175 241.74593862 129.18556439 241.75323411 125.23156077 241.76052231 C115.90525896 241.77751825 106.5791208 241.77395748 97.25282288 241.75723267 C87.63007889 241.74029953 78.00778814 241.75616295 68.38509363 241.78845555 C60.12165912 241.81513638 51.85836583 241.82243188 43.59489256 241.81394047 C38.66007236 241.80900833 33.72552507 241.81124279 28.79073906 241.83172798 C24.15221021 241.85006226 19.51433472 241.84415422 14.87584114 241.81952858 C13.17346651 241.81451407 11.47104229 241.81802707 9.76870728 241.83067703 C7.44474189 241.8465807 5.12293537 241.8316858 2.79907227 241.80900574 C1.49884093 241.80841943 0.1986096 241.80783312 -1.14102268 241.80722904 C-5.36302027 241.02439275 -6.81242369 239.42548155 -9.51939392 236.18081665 C-9.84939392 235.85081665 -10.17939392 235.52081665 -10.51939392 235.18081665 C-10.62403556 232.24648615 -10.66271036 229.33547552 -10.65983582 226.40048218 C-10.66280694 225.46802209 -10.66577806 224.53556201 -10.66883922 223.57484555 C-10.67756699 220.42493901 -10.6790379 217.27507029 -10.68052673 214.12515259 C-10.68515207 211.87698789 -10.69017634 209.62882399 -10.6955719 207.38066101 C-10.70872635 201.25454712 -10.71514691 195.1284442 -10.71958256 189.00231838 C-10.72250872 185.17852822 -10.72661266 181.35474109 -10.73108673 177.53095245 C-10.743201 166.94865926 -10.75358093 156.36636871 -10.75696182 145.78406906 C-10.75718139 145.10627902 -10.75740095 144.42848897 -10.75762717 143.73015983 C-10.75784545 143.05072214 -10.75806373 142.37128445 -10.75828862 141.67125773 C-10.75873209 140.29439847 -10.75917866 138.9175392 -10.7596283 137.54067993 C-10.75984973 136.8577062 -10.76007116 136.17473247 -10.7602993 135.47106257 C-10.76424639 124.40701349 -10.78169604 113.34303032 -10.80498782 102.27900669 C-10.82869598 90.92571129 -10.84090543 79.57246009 -10.84232974 68.21913552 C-10.84337969 61.84230776 -10.84932767 55.46557284 -10.86714935 49.08876801 C-10.88358607 43.09045987 -10.88580693 37.09231481 -10.87701035 31.09399223 C-10.87623758 28.89010876 -10.88061407 26.68621669 -10.8904686 24.48235512 C-10.9031175 21.47773588 -10.89734958 18.47370033 -10.8868866 15.46908569 C-10.894943 14.59330486 -10.90299941 13.71752403 -10.91129994 12.81520438 C-10.87298324 8.12268643 -10.59154356 4.98158344 -7.51939392 1.18081665 C-4.89932348 -0.12921857 -2.9354191 0.03087704 0 0 Z M6.48060608 17.18081665 C6.48060608 85.16081665 6.48060608 153.14081665 6.48060608 223.18081665 C57.63060608 223.18081665 108.78060608 223.18081665 161.48060608 223.18081665 C161.48060608 168.07081665 161.48060608 112.96081665 161.48060608 56.18081665 C150.92060608 55.85081665 140.36060608 55.52081665 129.48060608 55.18081665 C127.99560608 54.68581665 127.99560608 54.68581665 126.48060608 54.18081665 C123.48496655 42.19825852 124.85471733 29.52648781 124.48060608 17.18081665 C85.54060608 17.18081665 46.60060608 17.18081665 6.48060608 17.18081665 Z " fill="#1D3D69" transform="translate(214.51939392089844,377.8191833496094)"/>
<path d="M0 0 C9.27159322 1.74935721 16.10153641 10.06824122 22.375 16.5625 C27.5877204 21.91020326 32.78530167 27.14393414 38.46118164 32.00073242 C41.45383155 34.62635551 44.22020327 37.46515049 47 40.3125 C49.95800806 43.34085308 52.77993222 46.22865364 56.18359375 48.76171875 C58.3125 50.625 58.3125 50.625 58.8359375 52.6953125 C58.42361111 58.40277778 58.42361111 58.40277778 57.3125 60.625 C56.6525 60.625 55.9925 60.625 55.3125 60.625 C55.05726563 61.21796875 54.80203125 61.8109375 54.5390625 62.421875 C53.18626259 64.8517449 51.82908724 66.11736266 49.6875 67.875 C45.32032271 71.57212301 41.317044 75.54224225 37.3125 79.625 C32.7457512 84.28094312 28.10783503 88.73489564 23.16503906 92.99072266 C19.5827489 96.15095596 16.33847693 99.63766028 13.0234375 103.07421875 C9.15504951 106.71407085 6.01671932 109.38993527 0.6875 110.125 C-3.31305366 109.53232538 -4.22939691 108.75289316 -6.6875 105.625 C-7.14160156 103.05957031 -7.14160156 103.05957031 -7.078125 100.203125 C-7.05878906 98.66591797 -7.05878906 98.66591797 -7.0390625 97.09765625 C-7.00554687 96.03417969 -6.97203125 94.97070312 -6.9375 93.875 C-6.91945313 92.79605469 -6.90140625 91.71710938 -6.8828125 90.60546875 C-6.83571415 87.94441212 -6.769956 85.28515746 -6.6875 82.625 C-7.53052673 82.63388245 -8.37355347 82.64276489 -9.24212646 82.6519165 C-17.18754193 82.7320705 -25.13282158 82.79296841 -33.07854843 82.83224869 C-37.1635437 82.85312211 -41.24820485 82.88143463 -45.33300781 82.92675781 C-49.27524345 82.9702253 -53.21715777 82.99413895 -57.15961456 83.00450897 C-58.66354684 83.01189882 -60.16746157 83.02632967 -61.67125702 83.04792023 C-63.77829459 83.07696812 -65.88400529 83.08095571 -67.99121094 83.07910156 C-69.19034119 83.08798401 -70.38947144 83.09686646 -71.62493896 83.10601807 C-74.6875 82.625 -74.6875 82.625 -77.07366943 80.89741516 C-78.93763172 78.27279257 -79.19292469 77.00028371 -79.20507812 73.81225586 C-79.21768677 72.86124496 -79.23029541 71.91023407 -79.24328613 70.93040466 C-79.23518921 69.91051956 -79.22709229 68.89063446 -79.21875 67.83984375 C-79.2225769 66.7872084 -79.22640381 65.73457306 -79.23034668 64.65003967 C-79.23306673 62.42675825 -79.22569911 60.20344487 -79.20898438 57.98022461 C-79.18755582 54.57138026 -79.20879501 51.16463857 -79.234375 47.75585938 C-79.23173216 45.5963495 -79.22660809 43.43684094 -79.21875 41.27734375 C-79.22684692 40.25543442 -79.23494385 39.23352509 -79.24328613 38.1806488 C-79.23067749 37.23279007 -79.21806885 36.28493134 -79.20507812 35.30834961 C-79.20189575 34.47436142 -79.19871338 33.64037323 -79.19543457 32.78111267 C-78.6875 30.625 -78.6875 30.625 -77.07366943 28.85357666 C-73.90328026 27.22122563 -71.55423737 27.26462924 -67.99121094 27.28442383 C-67.32738403 27.28398575 -66.66355713 27.28354767 -65.97961426 27.28309631 C-63.79339818 27.28518029 -61.6079565 27.30849145 -59.421875 27.33203125 C-57.9030194 27.33762863 -56.38415837 27.34189806 -54.86529541 27.34489441 C-50.87358568 27.3563321 -46.882205 27.38578973 -42.890625 27.41900635 C-38.81514944 27.4497306 -34.73962056 27.46340476 -30.6640625 27.47851562 C-22.67172423 27.51066072 -14.67965309 27.56184376 -6.6875 27.625 C-6.7189209 26.61131348 -6.7189209 26.61131348 -6.75097656 25.57714844 C-6.83421643 22.50991746 -6.88618466 19.44292418 -6.9375 16.375 C-6.97101563 15.31152344 -7.00453125 14.24804688 -7.0390625 13.15234375 C-7.05839844 11.61513672 -7.05839844 11.61513672 -7.078125 10.046875 C-7.1095459 8.63293457 -7.1095459 8.63293457 -7.14160156 7.19042969 C-6.39449379 2.96967243 -4.10296533 0.95417798 0 0 Z " fill="#163867" transform="translate(504.6875,472.375)"/>
<path d="M0 0 C0.99457718 0.00212242 0.99457718 0.00212242 2.00924683 0.00428772 C4.12860613 0.00988871 6.24786009 0.02244125 8.3671875 0.03515625 C9.80338389 0.04017113 11.23958194 0.04473406 12.67578125 0.04882812 C16.19798998 0.05900792 19.71997071 0.07858287 23.2421875 0.09765625 C23.2421875 5.37765625 23.2421875 10.65765625 23.2421875 16.09765625 C16.9721875 16.09765625 10.7021875 16.09765625 4.2421875 16.09765625 C4.2421875 85.39765625 4.2421875 154.69765625 4.2421875 226.09765625 C56.0521875 226.09765625 107.8621875 226.09765625 161.2421875 226.09765625 C161.2421875 221.80765625 161.2421875 217.51765625 161.2421875 213.09765625 C166.5221875 213.09765625 171.8021875 213.09765625 177.2421875 213.09765625 C177.26909055 217.20186639 177.28897958 221.30590122 177.3046875 225.41015625 C177.31306641 226.57740234 177.32144531 227.74464844 177.33007812 228.94726562 C177.33330078 230.06552734 177.33652344 231.18378906 177.33984375 232.3359375 C177.34508057 233.36759033 177.35031738 234.39924316 177.35571289 235.4621582 C177.2421875 238.09765625 177.2421875 238.09765625 176.2421875 241.09765625 C172.74912675 243.63965994 169.18954373 243.3517813 164.99255371 243.35835266 C164.2610024 243.36217821 163.52945109 243.36600376 162.77573156 243.36994523 C160.32372197 243.38026647 157.87194692 243.37628481 155.41992188 243.37231445 C153.66229536 243.37666137 151.90467074 243.38184445 150.14704895 243.38780212 C145.37235481 243.40120439 140.59773976 243.40176951 135.82303047 243.39923882 C131.83921911 243.39817012 127.85542381 243.40304982 123.87161589 243.40784425 C114.47543355 243.41894331 105.07929119 243.41937435 95.68310547 243.41333008 C85.98324128 243.40728654 76.283522 243.41961005 66.58368254 243.44090015 C58.26003197 243.45849923 49.93642761 243.46452025 41.61275911 243.4612624 C36.63943829 243.45944697 31.66622088 243.46211176 26.69291687 243.47597694 C22.01763557 243.48852344 17.34258078 243.48664143 12.66730309 243.47356606 C10.949993 243.47119391 9.23266713 243.4739577 7.51537514 243.48218918 C5.17392536 243.49260457 2.833243 243.48459864 0.49182129 243.47187805 C-0.81930382 243.47204579 -2.13042892 243.47221354 -3.4812851 243.47238636 C-6.95383285 243.07523778 -8.35130517 242.58597544 -10.7578125 240.09765625 C-11.65672266 237.40092576 -11.8843524 235.86267978 -11.88924026 233.09804535 C-11.89308141 232.28229113 -11.89692255 231.46653691 -11.9008801 230.62606287 C-11.90001362 229.7302568 -11.89914713 228.83445073 -11.89825439 227.91149902 C-11.90122552 226.95958475 -11.90419664 226.00767047 -11.9072578 225.02691031 C-11.91595978 221.82326994 -11.91745429 218.61966688 -11.91894531 215.41601562 C-11.92357231 213.12490254 -11.92859681 210.83379024 -11.93399048 208.54267883 C-11.94712523 202.30938306 -11.95356118 196.07609806 -11.95800114 189.8427906 C-11.96092927 185.95233642 -11.96503352 182.06188519 -11.96950531 178.1714325 C-11.98161384 167.40376111 -11.99199677 156.6360936 -11.9953804 145.86841583 C-11.99559997 145.17932246 -11.99581953 144.49022909 -11.99604575 143.7802541 C-11.99626403 143.08950189 -11.99648231 142.39874969 -11.9967072 141.6870656 C-11.99715067 140.28730806 -11.99759723 138.88755051 -11.99804688 137.48779297 C-11.9982683 136.79346316 -11.99848973 136.09913336 -11.99871787 135.38376325 C-12.00266881 124.12449499 -12.02013271 112.86529134 -12.0434064 101.60604805 C-12.0670981 90.05155643 -12.079323 78.49710647 -12.08074832 66.94258928 C-12.08179898 60.45295519 -12.08776238 53.96341226 -12.10556793 47.47380066 C-12.12197934 41.37369685 -12.12423799 35.27375342 -12.11542892 29.17363548 C-12.1146549 26.93020894 -12.11904896 24.68677402 -12.12888718 22.44336891 C-12.14149625 19.38998954 -12.13579036 16.33718782 -12.12530518 13.28381348 C-12.13336158 12.38800741 -12.14141798 11.49220134 -12.14971852 10.56924963 C-12.13983376 9.3456183 -12.13983376 9.3456183 -12.1297493 8.09726715 C-12.13034639 7.39223383 -12.13094347 6.68720052 -12.13155866 5.96080256 C-11.64285165 3.52456972 -10.65456099 2.65190777 -8.7578125 1.09765625 C-5.8358356 -0.3633322 -3.25887775 -0.01369276 0 0 Z " fill="#183866" transform="translate(145.7578125,434.90234375)"/>
<path d="M0 0 C5.94 0 11.88 0 18 0 C18.00142502 2.34417526 18.00285004 4.68835052 18.00431824 7.1035614 C18.02009752 29.16160263 18.0633702 51.21946684 18.13209057 73.27740765 C18.16675936 84.61847273 18.19209858 95.95941603 18.19555664 107.30053711 C18.1985939 117.18424557 18.21905234 127.06773725 18.26052457 136.95136195 C18.28187782 142.18583485 18.29444319 147.41999936 18.28615379 152.65451622 C18.27862844 157.58025433 18.29437473 162.50536682 18.32806015 167.43099022 C18.33631172 169.23977311 18.33602188 171.04861801 18.32659721 172.85739517 C18.31500596 175.32617736 18.33404394 177.79289866 18.36076355 180.26152039 C18.35009029 180.97845446 18.33941703 181.69538853 18.32842034 182.43404788 C18.40786838 186.36448565 18.89529982 187.87654839 21.47745228 190.92115498 C22.30989303 191.60717383 23.14233377 192.29319269 24 193 C24.33 193.33 24.66 193.66 25 194 C26.69302175 194.10619587 28.39046716 194.14241867 30.08679199 194.15148926 C31.18897568 194.15983292 32.29115936 194.16817657 33.42674255 194.17677307 C35.25641319 194.1830497 35.25641319 194.1830497 37.12304688 194.18945312 C39.08206433 194.2021831 41.04108179 194.21491334 43.00009918 194.2276535 C45.1120043 194.24042269 47.22390903 194.25073252 49.33583069 194.26036072 C53.73007025 194.28053032 58.12424263 194.30818912 62.51843262 194.33703613 C71.84559036 194.39720137 81.17278824 194.44901466 90.5 194.5 C100.56778353 194.55503353 110.63554675 194.61145624 120.70326471 194.67754889 C125.07592923 194.70596761 129.44858563 194.72953849 133.82129669 194.74947357 C135.88404898 194.75961588 137.94677283 194.77200099 140.00950623 194.78541565 C142.53073491 194.80179896 145.05199037 194.8145778 147.57325745 194.82322693 C148.67544113 194.83157059 149.77762482 194.83991425 150.91320801 194.84851074 C151.87702644 194.85366447 152.84084488 194.85881821 153.83386993 194.86412811 C156 195 156 195 157 196 C157 199.63 157 203.26 157 207 C105.19 207 53.38 207 0 207 C0 138.69 0 70.38 0 0 Z " fill="#C4F4F3" transform="translate(185,424)"/>
<path d="M0 0 C5.94 0 11.88 0 18 0 C18.01030746 2.37145203 18.02061493 4.74290405 18.03123474 7.18621826 C18.12866395 29.4946789 18.23149697 51.80310991 18.33933926 74.11152267 C18.39465627 85.58149951 18.4481358 97.05147945 18.49731445 108.52148438 C18.5401749 118.51680374 18.58645763 128.51210034 18.63687855 138.50738454 C18.66346445 143.80153388 18.68831721 149.09567876 18.70907402 154.38985443 C18.72865505 159.37036194 18.75280331 164.35082618 18.78049088 169.33129501 C18.78985352 171.16147196 18.79753163 172.9916584 18.80341911 174.82184982 C18.81169362 177.31656316 18.82597414 179.81117186 18.84178162 182.30584717 C18.84275972 183.03347598 18.84373783 183.76110479 18.84474558 184.51078296 C18.78881334 189.36838793 18.78881334 189.36838793 20 194 C23.06042332 195.02014111 25.16632694 195.13690816 28.37199402 195.15821838 C29.48678635 195.1680072 30.60157867 195.17779602 31.75015259 195.18788147 C32.97366425 195.19363693 34.1971759 195.1993924 35.45776367 195.20532227 C37.38962776 195.22017166 37.38962776 195.22017166 39.36051941 195.23532104 C42.89326708 195.26236499 46.42602809 195.28337731 49.95882201 195.30332303 C53.65041397 195.32518573 57.34196479 195.35257303 61.03352356 195.37937927 C68.02451309 195.42930232 75.01552546 195.47424259 82.00655967 195.51740164 C89.96539247 195.56677733 97.924184 195.62169423 105.88297689 195.67708123 C122.25528013 195.79089532 138.62762173 195.89753905 155 196 C155 199.96 155 203.92 155 208 C103.85 208 52.7 208 0 208 C0 139.36 0 70.72 0 0 Z " fill="#D7E7F8" transform="translate(151,452)"/>
<path d="M0 0 C2.05977639 3.08966458 2.26527617 3.9445133 2.421875 7.47265625 C2.47448486 8.36355957 2.52709473 9.25446289 2.58129883 10.17236328 C2.63697021 11.1261084 2.6926416 12.07985352 2.75 13.0625 C3.54874223 23.79752513 6.04510864 33.03850726 10 43 C10.64001953 44.68029297 10.64001953 44.68029297 11.29296875 46.39453125 C13.67783213 52.40685673 16.53233462 58.02507439 19.765625 63.625 C20.8876475 65.7838281 21.53805252 67.62427012 22 70 C22.66 70 23.32 70 24 70 C25.2265625 71.6171875 25.2265625 71.6171875 26.625 73.875 C30.06449143 79.21969992 33.98038341 84.08532709 38 89 C38.99193359 90.27810547 38.99193359 90.27810547 40.00390625 91.58203125 C41.82449336 93.78739998 43.6383127 95.59099062 45.8125 97.4375 C46.51375 98.035625 47.215 98.63375 47.9375 99.25 C48.9584375 100.11625 48.9584375 100.11625 50 101 C50.556875 101.495 51.11375 101.99 51.6875 102.5 C60.04081058 109.88946705 68.62174183 115.82460793 79 120 C79 120.66 79 121.32 79 122 C80.65 122.33 82.3 122.66 84 123 C84 123.66 84 124.32 84 125 C84.99 125.0825 85.98 125.165 87 125.25 C90.62236063 125.76029287 93.31516937 127.1884289 96.546875 128.890625 C108.15148338 134.13856892 121.50387265 135.32539207 134 137 C134 137.33 134 137.66 134 138 C89.78 138 45.56 138 0 138 C0 92.46 0 46.92 0 0 Z " fill="#FCFCFC" transform="translate(0,886)"/>
<path d="M0 0 C43.89 0 87.78 0 133 0 C133 43.89 133 87.78 133 133 C131.10605273 130.15907909 130.700311 129.20403291 130.2890625 126.0078125 C130.18078125 125.22639893 130.0725 124.44498535 129.9609375 123.63989258 C129.85007812 122.80997803 129.73921875 121.98006348 129.625 121.125 C128.21866413 111.45186298 125.75027612 102.50543725 122.25 93.375 C121 90 121 90 121 87 C120.34 87 119.68 87 119 87 C118.79246094 86.41734375 118.58492187 85.8346875 118.37109375 85.234375 C110.02118865 63.01454386 92.65897417 42.46072096 72.87890625 29.41796875 C71.94884766 28.71607422 71.94884766 28.71607422 71 28 C71 27.34 71 26.68 71 26 C70.360625 25.773125 69.72125 25.54625 69.0625 25.3125 C63.70903417 23.0181575 58.70581254 20.04973079 53.75 17 C48.48367938 13.97674187 42.6772048 12.09795171 37 10 C36.12472656 9.64808594 35.24945312 9.29617188 34.34765625 8.93359375 C23.4043349 4.63382958 11.65901613 2.30718301 0 1 C0 0.67 0 0.34 0 0 Z " fill="#FDFDFD" transform="translate(891,0)"/>
<path d="M0 0 C0.33 0 0.66 0 1 0 C1 44.22 1 88.44 1 134 C-42.56 134 -86.12 134 -131 134 C-131 133.67 -131 133.34 -131 133 C-129.13021484 132.65388672 -129.13021484 132.65388672 -127.22265625 132.30078125 C-117.75418105 130.5022477 -108.49373292 128.47180872 -99.29516602 125.57543945 C-96.40394164 124.6697333 -94.05236526 124 -91 124 C-91 123.34 -91 122.68 -91 122 C-89.88818359 121.65001953 -89.88818359 121.65001953 -88.75390625 121.29296875 C-79.17746007 117.97579094 -71.33265834 113.0051916 -63.03540039 107.27099609 C-61 106 -61 106 -58.11328125 104.66894531 C-54.65084559 102.81282783 -52.08085992 100.53127644 -49.33984375 97.7734375 C-48.57130821 97.01276474 -48.57130821 97.01276474 -47.7872467 96.23672485 C-46.71043981 95.1663089 -45.63744557 94.09204514 -44.56811523 93.01416016 C-42.95056702 91.3881355 -41.31531427 89.78159934 -39.67773438 88.17578125 C-34.0512315 82.58678731 -29.42108481 77.22882785 -26 70 C-24.96441815 68.29584838 -23.9084539 66.60346745 -22.8125 64.9375 C-22.32394531 64.18339844 -21.83539062 63.42929687 -21.33203125 62.65234375 C-20.89246094 62.10707031 -20.45289063 61.56179688 -20 61 C-19.34 61 -18.68 61 -18 61 C-17.34 58.36 -16.68 55.72 -16 53 C-15.34 53 -14.68 53 -14 53 C-13.67 51.02 -13.34 49.04 -13 47 C-12.34 47 -11.68 47 -11 47 C-10.89429688 45.99066406 -10.78859375 44.98132813 -10.6796875 43.94140625 C-9.98030072 39.88576679 -8.7707227 36.69973672 -7.125 32.9375 C-2.67364846 22.31794181 -0.67933707 11.47845394 0 0 Z " fill="#FCFCFC" transform="translate(1023,890)"/>
<path d="M0 0 C44.22 0 88.44 0 134 0 C134 0.33 134 0.66 134 1 C132.92105469 1.15855469 131.84210938 1.31710938 130.73046875 1.48046875 C105.78788084 5.29918739 82.26985059 12.43066488 61.85546875 27.75 C60 29 60 29 58 29 C58 29.66 58 30.32 58 31 C56.55859375 32.19921875 56.55859375 32.19921875 54.4375 33.6875 C40.50382986 44.34008612 30.32506084 57.26996758 21 72 C20.31309082 73.07121094 20.31309082 73.07121094 19.61230469 74.1640625 C8.24073145 92.0564567 3.68271716 112.23261307 1 133 C0.67 133 0.34 133 0 133 C0 89.11 0 45.22 0 0 Z " fill="#FDFDFD" transform="translate(0,0)"/>
<path d="M0 0 C1.40053368 -0.01485695 1.40053368 -0.01485695 2.82936096 -0.03001404 C4.355261 -0.02326157 4.355261 -0.02326157 5.9119873 -0.01637268 C6.98879257 -0.02323593 8.06559784 -0.03009918 9.17503357 -0.03717041 C12.73787586 -0.05548649 16.30027987 -0.05159425 19.86315918 -0.0459137 C22.33650863 -0.05047285 24.8098568 -0.05577762 27.28320312 -0.0617981 C32.46827337 -0.07073844 37.65318966 -0.06829508 42.83825684 -0.05836487 C49.49003737 -0.04686839 56.14108301 -0.06709253 62.79282379 -0.09628201 C67.90056749 -0.11460733 73.00818322 -0.11435893 78.11595154 -0.10864449 C80.56880945 -0.10849085 83.02167582 -0.11456964 85.47450256 -0.12693596 C88.90061967 -0.14177603 92.32574546 -0.13121968 95.75183105 -0.11402893 C96.76909775 -0.1236969 97.78636444 -0.13336487 98.8344574 -0.14332581 C105.68820418 -0.0711383 105.68820418 -0.0711383 108.97802734 2.27377319 C110.63589927 4.86232024 110.67453871 6.06543681 110.20690918 9.07518005 C110.10120605 9.86279724 109.99550293 10.65041443 109.88659668 11.4618988 C109.61202637 12.41516052 109.61202637 12.41516052 109.33190918 13.38768005 C106.93819578 14.58453675 105.47369657 14.51089711 102.80148315 14.50793457 C101.84793442 14.50930923 100.89438568 14.5106839 99.91194153 14.51210022 C98.33777718 14.50670731 98.33777718 14.50670731 96.73181152 14.50120544 C95.629366 14.50135147 94.52692047 14.5014975 93.3910675 14.50164795 C89.73330747 14.50094917 86.07559786 14.49315838 82.41784668 14.4853363 C79.88721749 14.483472 77.35658793 14.48204816 74.82595825 14.48104858 C68.83717462 14.47761562 62.84841276 14.46972761 56.85963786 14.45969909 C50.04231138 14.44853039 43.22498405 14.44302559 36.40765071 14.43800366 C22.38239344 14.4275448 8.35715231 14.40995007 -5.66809082 14.38768005 C-5.66809082 13.72768005 -5.66809082 13.06768005 -5.66809082 12.38768005 C-6.65809082 12.05768005 -7.64809082 11.72768005 -8.66809082 11.38768005 C-9.05871582 5.4306488 -9.05871582 5.4306488 -8.66809082 3.38768005 C-5.79851722 0.73208809 -3.87549697 0.01163073 0 0 Z " fill="#38D3D4" transform="translate(247.6680908203125,534.6123199462891)"/>
<path d="M0 0 C0.95058792 -0.00845947 1.90117584 -0.01691895 2.88056946 -0.02563477 C3.92170395 -0.01956207 4.96283844 -0.01348938 6.03552246 -0.00723267 C7.13329514 -0.01248962 8.23106781 -0.01774658 9.36210632 -0.02316284 C13.00013347 -0.0363944 16.63772504 -0.02761329 20.27575684 -0.01748657 C22.79777104 -0.01950639 25.31978468 -0.02241706 27.84179688 -0.02618408 C33.13120617 -0.03061173 38.42045854 -0.02444717 43.70983887 -0.01016235 C49.82600107 0.00616452 55.94186327 0.00087609 62.05801821 -0.01564157 C67.94041221 -0.03089237 73.82271294 -0.02928268 79.7051239 -0.02049637 C82.20904075 -0.01849104 84.71296522 -0.02096522 87.21687317 -0.02793503 C90.71262067 -0.03552954 94.20778713 -0.02397272 97.70349121 -0.00723267 C98.7446257 -0.01330536 99.78576019 -0.01937805 100.85844421 -0.02563477 C101.80903214 -0.01717529 102.75962006 -0.00871582 103.73901367 0 C104.56565269 0.00113108 105.39229172 0.00226215 106.24398041 0.00342751 C108.90576331 0.47619763 109.78948031 1.21078698 111.36950684 3.38095093 C112.02329501 9.4829739 112.02329501 9.4829739 110.13547516 12.07589149 C107.86256889 13.75558061 106.55130175 13.75805385 103.73901367 13.76190186 C102.31313179 13.77459106 102.31313179 13.77459106 100.85844421 13.78753662 C99.81730972 13.78146393 98.77617523 13.77539124 97.70349121 13.76913452 C96.60571854 13.77439148 95.50794586 13.77964844 94.37690735 13.7850647 C90.7388802 13.79829625 87.10128863 13.78951515 83.46325684 13.77938843 C80.94124263 13.78140825 78.419229 13.78431891 75.8972168 13.78808594 C70.6078075 13.79251359 65.31855513 13.78634903 60.0291748 13.77206421 C53.9130126 13.75573733 47.7971504 13.76102577 41.68099546 13.77754343 C35.79860146 13.79279422 29.91630073 13.79118454 24.03388977 13.78239822 C21.52997292 13.7803929 19.02604845 13.78286708 16.5221405 13.78983688 C13.026393 13.79743139 9.53122654 13.78587457 6.03552246 13.76913452 C4.99438797 13.77520721 3.95325348 13.78127991 2.88056946 13.78753662 C1.92998154 13.77907715 0.97939362 13.77061768 0 13.76190186 C-0.82663902 13.76077078 -1.65327805 13.7596397 -2.50496674 13.75847435 C-5.16674964 13.28570423 -6.05046663 12.55111488 -7.63049316 10.38095093 C-8.28428134 4.27892796 -8.28428134 4.27892796 -6.39646149 1.68601036 C-4.12355522 0.00632125 -2.81228807 0.00384801 0 0 Z " fill="#1E3D69" transform="translate(246.6304931640625,446.6190490722656)"/>
<path d="M0 0 C0.95058792 -0.00845947 1.90117584 -0.01691895 2.88056946 -0.02563477 C3.92170395 -0.01956207 4.96283844 -0.01348938 6.03552246 -0.00723267 C7.13329514 -0.01248962 8.23106781 -0.01774658 9.36210632 -0.02316284 C13.00013347 -0.0363944 16.63772504 -0.02761329 20.27575684 -0.01748657 C22.79777104 -0.01950639 25.31978468 -0.02241706 27.84179688 -0.02618408 C33.13120617 -0.03061173 38.42045854 -0.02444717 43.70983887 -0.01016235 C49.82600107 0.00616452 55.94186327 0.00087609 62.05801821 -0.01564157 C67.94041221 -0.03089237 73.82271294 -0.02928268 79.7051239 -0.02049637 C82.20904075 -0.01849104 84.71296522 -0.02096522 87.21687317 -0.02793503 C90.71262067 -0.03552954 94.20778713 -0.02397272 97.70349121 -0.00723267 C98.7446257 -0.01330536 99.78576019 -0.01937805 100.85844421 -0.02563477 C101.80903214 -0.01717529 102.75962006 -0.00871582 103.73901367 0 C104.56565269 0.00113108 105.39229172 0.00226215 106.24398041 0.00342751 C108.89201736 0.47375615 109.77867408 1.24126578 111.36950684 3.38095093 C111.7914066 6.68583237 111.80145536 8.6250043 110.13547516 11.54061127 C108.36950684 13.38095093 108.36950684 13.38095093 106.24398041 13.88431549 C105.00402187 13.88657764 105.00402187 13.88657764 103.73901367 13.8888855 C102.31313179 13.90580444 102.31313179 13.90580444 100.85844421 13.92306519 C99.81730972 13.91496826 98.77617523 13.90687134 97.70349121 13.89852905 C96.60571854 13.90553833 95.50794586 13.91254761 94.37690735 13.91976929 C90.7387685 13.9374119 87.10140395 13.92570365 83.46325684 13.91220093 C80.94124197 13.91489402 78.4192281 13.91877491 75.8972168 13.92379761 C70.60775931 13.92970119 65.31858079 13.92148182 60.0291748 13.9024353 C53.91293294 13.88066585 47.7972244 13.88771712 41.68099546 13.90974092 C35.79858167 13.93007539 29.9163337 13.92792914 24.03388977 13.91621399 C21.52997259 13.91354022 19.02604186 13.91683915 16.5221405 13.9261322 C13.02623113 13.93625868 9.53135464 13.92084994 6.03552246 13.89852905 C4.47382072 13.91067444 4.47382072 13.91067444 2.88056946 13.92306519 C1.92998154 13.91178589 0.97939362 13.90050659 0 13.8888855 C-0.82663902 13.8873774 -1.65327805 13.88586929 -2.50496674 13.88431549 C-4.63049316 13.38095093 -4.63049316 13.38095093 -6.39646149 11.54061127 C-8.06244169 8.6250043 -8.05239292 6.68583237 -7.63049316 3.38095093 C-5.37417376 0.34617991 -3.69658753 0.00505798 0 0 Z " fill="#2ED1D2" transform="translate(246.6304931640625,505.6190490722656)"/>
<path d="M0 0 C0.95762741 -0.00708481 1.91525482 -0.01416962 2.90190125 -0.02146912 C3.95598175 -0.0189917 5.01006226 -0.01651428 6.09608459 -0.01396179 C7.20346481 -0.01907272 8.31084503 -0.02418365 9.45178223 -0.02944946 C13.1276229 -0.04339717 16.80327718 -0.04238479 20.47914124 -0.04008484 C23.02500479 -0.04396891 25.57086769 -0.04830297 28.11672974 -0.05307007 C33.45915594 -0.06054344 38.80151319 -0.06037047 44.14393616 -0.05497742 C50.32197998 -0.04893677 56.49979611 -0.06124879 62.67780107 -0.08254749 C68.61731071 -0.10227226 74.55674964 -0.10533904 80.49629402 -0.10181236 C83.02533567 -0.1023271 85.55438083 -0.1075933 88.08340263 -0.11762428 C91.61515392 -0.12991229 95.14637355 -0.12324263 98.67811584 -0.11161804 C99.73017212 -0.11926178 100.78222839 -0.12690552 101.86616516 -0.13478088 C102.8266124 -0.12776657 103.78705963 -0.12075226 104.77661133 -0.11352539 C105.61192351 -0.11369313 106.4472357 -0.11386087 107.30786037 -0.1140337 C109.9718334 0.35159139 110.85691778 1.10509669 112.45179749 3.26069641 C113.093634 8.39538852 113.093634 8.39538852 111.21776581 10.92438698 C108.94528822 12.64397232 107.65527825 12.63776966 104.82130432 12.64164734 C103.39542244 12.65433655 103.39542244 12.65433655 101.94073486 12.6672821 C100.89960037 12.66120941 99.85846588 12.65513672 98.78578186 12.64888 C97.68800919 12.65413696 96.59023651 12.65939392 95.459198 12.66481018 C91.82117085 12.67804174 88.18357928 12.66926063 84.54554749 12.65913391 C82.02353328 12.66115373 79.50151965 12.6640644 76.97950745 12.66783142 C71.69009815 12.67225907 66.40084578 12.66609451 61.11146545 12.65180969 C54.99530325 12.63548281 48.87944105 12.64077125 42.76328611 12.65728891 C36.88089211 12.67253971 30.99859138 12.67093002 25.11618042 12.66214371 C22.61226357 12.66013838 20.1083391 12.66261256 17.60443115 12.66958237 C14.10868365 12.67717688 10.61351719 12.66562005 7.11781311 12.64888 C6.07667862 12.6549527 5.03554413 12.66102539 3.96286011 12.6672821 C3.01227219 12.65882263 2.06168427 12.65036316 1.08229065 12.64164734 C0.25565163 12.64051626 -0.5709874 12.63938519 -1.42267609 12.63821983 C-4.0857369 12.16522274 -4.97254779 11.43673143 -6.54820251 9.26069641 C-6.86070251 5.69819641 -6.86070251 5.69819641 -6.54820251 2.26069641 C-4.08063587 -0.20687023 -3.39475932 0.00834675 0 0 Z " fill="#153663" transform="translate(245.54820251464844,476.7393035888672)"/>
<path d="M0 0 C1.00349991 -0.0038269 2.00699982 -0.00765381 3.04090881 -0.01159668 C5.16164148 -0.01431674 7.28240763 -0.006949 9.40307617 0.00976562 C12.64513222 0.0311509 15.88496653 0.00997805 19.12695312 -0.015625 C21.18880697 -0.0129813 23.25065943 -0.00785546 25.3125 0 C26.2803392 -0.00809692 27.24817841 -0.01619385 28.24534607 -0.02453613 C32.53549237 0.03505948 35.07790876 0.15668865 38.84594727 2.34570312 C40.72265625 4.53125 40.72265625 4.53125 41.16015625 8.03125 C40.76921447 11.15878427 40.51141044 12.98933615 38.72265625 15.53125 C35.58573836 17.62252859 34.80553106 17.78990639 31.22290039 17.83764648 C30.31508316 17.85363388 29.40726593 17.86962128 28.47193909 17.88609314 C27.49377731 17.89145584 26.51561554 17.89681854 25.5078125 17.90234375 C23.99688271 17.91588646 23.99688271 17.91588646 22.45542908 17.92970276 C20.32456438 17.94421345 18.19365504 17.95309402 16.06274414 17.95678711 C12.80083353 17.96869278 9.54080864 18.0178792 6.27929688 18.06835938 C4.20964466 18.07782237 2.13998082 18.085058 0.0703125 18.08984375 C-0.90582504 18.10937607 -1.88196259 18.12890839 -2.88768005 18.14903259 C-9.65475045 18.10388463 -9.65475045 18.10388463 -12.89086914 15.12744141 C-15.03825684 11.10643052 -14.85249765 9.06058698 -14.27734375 4.53125 C-10.88010624 -0.88139911 -5.74654777 -0.04797517 0 0 Z " fill="#2FCFD1" transform="translate(883.27734375,518.46875)"/>
<path d="M0 0 C1.27276283 1.90914424 2.5069865 3.84497749 3.6875 5.8125 C8.87363583 12.96095749 14.7204756 16.16796952 23 19 C21.39626852 23.00517396 18.57886014 25.6771098 15.5546875 28.640625 C15.02481232 29.16767029 14.49493713 29.69471558 13.94900513 30.23773193 C12.26232175 31.91325675 10.56880436 33.58167722 8.875 35.25 C7.72740612 36.38755851 6.58026539 37.52557436 5.43359375 38.6640625 C2.62761863 41.44803465 -0.18450464 44.2256576 -3 47 C-3.66 46.67 -4.32 46.34 -5 46 C-4.79503906 45.26523437 -4.59007812 44.53046875 -4.37890625 43.7734375 C-3.72517625 38.98840347 -6.26184335 35.77788122 -9 32 C-13.09039343 27.56594646 -16.99323972 24.35152106 -23 23 C-22.33226562 22.4946875 -21.66453125 21.989375 -20.9765625 21.46875 C-17.2194313 18.35259919 -13.81422457 14.95937628 -10.375 11.5 C-9.70726562 10.83613281 -9.03953125 10.17226563 -8.3515625 9.48828125 C-7.70703125 8.84246094 -7.0625 8.19664062 -6.3984375 7.53125 C-5.81755371 6.94923828 -5.23666992 6.36722656 -4.63818359 5.76757812 C-2.94114522 3.93649648 -1.46274047 2.02132206 0 0 Z " fill="#AAABAC" transform="translate(970,948)"/>
<path d="M0 0 C2.4375 1 2.4375 1 4 2 C4 2.66 4 3.32 4 4 C4.81984375 4.38502686 4.81984375 4.38502686 5.65625 4.77783203 C10.67551738 7.39517083 15.29418629 10.73964063 20 13.875 C21.093125 14.59558594 22.18625 15.31617188 23.3125 16.05859375 C24.364375 16.75855469 25.41625 17.45851563 26.5 18.1796875 C27.4590625 18.81632324 28.418125 19.45295898 29.40625 20.10888672 C35.79596958 24.76765629 35.79596958 24.76765629 36.390625 28.359375 C36.34421875 29.14828125 36.2978125 29.9371875 36.25 30.75 C36.21390625 31.54921875 36.1778125 32.3484375 36.140625 33.171875 C36.09421875 33.77515625 36.0478125 34.3784375 36 35 C35.34 35 34.68 35 34 35 C34 35.66 34 36.32 34 37 C30.88111322 38.55944339 28.4545855 38.28316275 25 38 C22.44259914 36.76865885 20.32731824 35.56936073 18 34 C16.96552734 33.32904297 16.96552734 33.32904297 15.91015625 32.64453125 C8.64042074 27.87895771 1.51854298 22.87747082 -5.5 17.75 C-6.1290625 17.29109375 -6.758125 16.8321875 -7.40625 16.359375 C-10.45979774 13.7548784 -10.99530514 12.04929605 -11.375 8.0625 C-11.28237782 5.10403874 -11.05650097 4.09040155 -9.4375 1.5 C-6.09971339 -0.55402253 -3.85600245 -0.41314312 0 0 Z " fill="#30CED0" transform="translate(870,567)"/>
<path d="M0 0 C3.8125 1 3.8125 1 5.8125 2.625 C7.24598212 6.02952003 7.32611669 8.34048107 6.8125 12 C3.28390013 16.04867336 -0.81569522 19.07034153 -5.1875 22.125 C-5.79078125 22.55425781 -6.3940625 22.98351562 -7.015625 23.42578125 C-9.56615186 25.22778392 -12.10441496 26.95079672 -14.79296875 28.54296875 C-17.5507427 30.22102696 -19.97337631 32.18009565 -22.5 34.1875 C-28.5155857 38.58163403 -28.5155857 38.58163403 -32.625 38.8125 C-36.1875 38 -36.1875 38 -38.6875 36 C-40.5477965 32.279407 -41.10424257 29.04624426 -40.1875 25 C-37.96114787 22.707331 -36.25587928 21.30113251 -33.625 19.625 C-32.95476807 19.16730225 -32.28453613 18.70960449 -31.59399414 18.23803711 C-29.47474494 16.79926037 -27.33278054 15.3995818 -25.1875 14 C-23.81079718 13.07414157 -22.43575761 12.14580455 -21.0625 11.21484375 C-17.45695565 8.77948522 -13.82529382 6.38690331 -10.1875 4 C-9.14078125 3.24589844 -8.0940625 2.49179687 -7.015625 1.71484375 C-4.19603145 0.00517307 -3.17475453 -0.50694683 0 0 Z " fill="#2FCFD2" transform="translate(899.1875,450)"/>
<path d="M0 0 C1.05111465 -0.00622879 2.10222931 -0.01245758 3.18519592 -0.01887512 C4.31444992 -0.00966537 5.44370392 -0.00045563 6.60717773 0.0090332 C7.7707933 0.0085347 8.93440887 0.00803619 10.13328552 0.00752258 C12.59196685 0.00986227 15.0506506 0.01958452 17.50927734 0.03613281 C21.27975795 0.05974548 25.04953251 0.05669013 28.82006836 0.05004883 C31.20744238 0.05562486 33.59481342 0.06273427 35.98217773 0.0715332 C37.11345596 0.0706218 38.24473419 0.06971039 39.41029358 0.06877136 C40.98223732 0.08306938 40.98223732 0.08306938 42.5859375 0.09765625 C43.50875015 0.10226364 44.43156281 0.10687103 45.38233948 0.11161804 C47.72827148 0.37231445 47.72827148 0.37231445 50.72827148 2.37231445 C51.40416906 9.46923904 51.40416906 9.46923904 49.53149414 11.97134399 C47.09538366 13.86402142 45.54521841 13.75274034 42.47827148 13.76049805 C41.40706055 13.76995453 40.33584961 13.77941101 39.23217773 13.78915405 C37.49774414 13.78004501 37.49774414 13.78004501 35.72827148 13.77075195 C34.54104492 13.77362213 33.35381836 13.77649231 32.13061523 13.77944946 C29.61889164 13.78149222 27.10715221 13.77594768 24.59545898 13.76342773 C20.74353577 13.74737805 16.89266194 13.76327033 13.04077148 13.7824707 C10.60326916 13.78048831 8.16576749 13.77664472 5.72827148 13.77075195 C4.57198242 13.77682465 3.41569336 13.78289734 2.22436523 13.78915405 C1.1531543 13.77969757 0.08194336 13.77024109 -1.02172852 13.76049805 C-1.96532227 13.75811127 -2.90891602 13.75572449 -3.88110352 13.75326538 C-6.27172852 13.37231445 -6.27172852 13.37231445 -8.07250977 12.06680298 C-10.10197015 9.19918826 -9.69373155 6.74833875 -9.27172852 3.37231445 C-6.31798153 0.42270857 -4.09438289 -0.00279026 0 0 Z " fill="#1B3B68" transform="translate(248.271728515625,564.627685546875)"/>
<path d="M0 0 C7.54330365 3.77165183 12.86495143 10.75427069 18.30859375 17.08203125 C21.73268671 20.96477869 25.27765091 24.71927889 29.4375 27.8125 C29.953125 28.204375 30.46875 28.59625 31 29 C31 29.66 31 30.32 31 31 C20.77 31 10.54 31 0 31 C0 20.77 0 10.54 0 0 Z " fill="#BDF5F3" transform="translate(780,401)"/>
<path d="M0 0 C0.66368088 -0.00043808 1.32736176 -0.00087616 2.01115417 -0.00132751 C4.20280472 0.00076098 6.39368833 0.0240935 8.58520508 0.04760742 C10.10548993 0.05320319 11.62578019 0.05747338 13.14607239 0.06047058 C17.14601598 0.07192093 21.14563239 0.10138945 25.14544678 0.13458252 C29.22753473 0.16527948 33.30967558 0.1789751 37.3918457 0.1940918 C45.40045934 0.22625922 53.40880712 0.27745757 61.41723633 0.34057617 C61.41723633 0.67057617 61.41723633 1.00057617 61.41723633 1.34057617 C60.75483948 1.35088364 60.09244263 1.3611911 59.40997314 1.37181091 C52.46585775 1.48066345 45.52185177 1.59518879 38.57788086 1.71289062 C35.99229235 1.75598915 33.40667995 1.79767985 30.82104492 1.83789062 C27.08741073 1.89620616 23.35389405 1.95971843 19.62036133 2.02416992 C18.47923889 2.04088242 17.33811646 2.05759491 16.16241455 2.07481384 C3.96161875 1.62852159 3.96161875 1.62852159 -7.58276367 4.34057617 C-7.91276367 19.19057617 -8.24276367 34.04057617 -8.58276367 49.34057617 C-8.91276367 49.34057617 -9.24276367 49.34057617 -9.58276367 49.34057617 C-9.65873573 42.84447712 -9.71133039 36.34849232 -9.74755859 29.85205078 C-9.76265892 27.64139525 -9.78314076 25.43076974 -9.80908203 23.22021484 C-9.84541022 20.04541624 -9.86247751 16.8710132 -9.87573242 13.69604492 C-9.89121628 12.70533493 -9.90670013 11.71462494 -9.9226532 10.69389343 C-9.92287979 9.77316544 -9.92310638 8.85243744 -9.92333984 7.90380859 C-9.93000168 7.09328537 -9.93666351 6.28276215 -9.94352722 5.44767761 C-9.58276367 3.34057617 -9.58276367 3.34057617 -8.47290039 1.57666016 C-5.6486137 -0.27032557 -3.35264698 -0.01859139 0 0 Z " fill="#092A59" transform="translate(436.582763671875,500.659423828125)"/>
<path d="M0 0 C-0.57785854 3.63167692 -1.94687096 5.32194392 -4.52734375 7.890625 C-5.23697266 8.59960938 -5.94660156 9.30859375 -6.67773438 10.0390625 C-7.79631836 11.13347656 -7.79631836 11.13347656 -8.9375 12.25 C-9.67935547 12.99507812 -10.42121094 13.74015625 -11.18554688 14.5078125 C-16.73305861 20 -16.73305861 20 -19 20 C-18.1223157 12.53968346 -13.40841602 8.20573577 -8 3.515625 C-5.44336773 1.57817711 -3.26685673 0 0 0 Z " fill="#5D5E60" transform="translate(989,970)"/>
<path d="M0 0 C0.66 0.33 1.32 0.66 2 1 C-4.27 7.27 -10.54 13.54 -17 20 C-17.66 19.67 -18.32 19.34 -19 19 C-12.98348207 12.26459665 -7.02537494 5.71692402 0 0 Z " fill="#DBDADA" transform="translate(74,54)"/>
<path d="M0 0 C1.7578125 1.52994792 3.515625 3.05989583 5.2734375 4.58984375 C6.95632334 6.06958624 6.95632334 6.06958624 9 7 C9 7.66 9 8.32 9 9 C6.03 9 3.06 9 0 9 C0 6.03 0 3.06 0 0 Z " fill="#DFE4EA" transform="translate(356,408)"/>
<path d="M0 0 C5.28 0.66 10.56 1.32 16 2 C16 2.33 16 2.66 16 3 C13.89646505 3.0810206 11.79204048 3.13919907 9.6875 3.1875 C8.51574219 3.22230469 7.34398438 3.25710938 6.13671875 3.29296875 C3 3 3 3 0 0 Z " fill="#D0D2D5" transform="translate(118,1021)"/>
<path d="M0 0 C0.66 0.33 1.32 0.66 2 1 C-0.83430453 4.2542015 -2.68607774 5.5206753 -7 6 C-4.74259377 3.66475218 -2.7194239 1.81294927 0 0 Z " fill="#77797B" transform="translate(67,23)"/>
</svg>
